<svg xmlns="http://www.w3.org/2000/svg" viewBox="0 0 500 500" width="500" height="500"
    >
    <title>16. Cloud Computing</title>
    
    <g id="Layer_1" data-name="Layer 1">
        <path
            d="M334.29,293.13h13.93a76.08,76.08,0,0,0,0-152.15H319.93v-5.26a80.66,80.66,0,0,0-161.32,0V141h-6.82a76.07,76.07,0,0,0-7,151.81v59.36H114l1-.69a7,7,0,0,0,2.55-8.58,7.74,7.74,0,0,0-.61-1.13,7,7,0,0,0-9.7-1.94l-16.9,11.26a7,7,0,0,0-1,10.82l15.77,15.49a7,7,0,1,0,9.81-10l-1.26-1.24h38.12a7,7,0,0,0,7-7v-66h47V397h-.43l-3.32-4.38a7,7,0,1,0-11.16,8.46L205,419.69a7,7,0,0,0,5,2.75,5.82,5.82,0,0,0,.59,0,7,7,0,0,0,4.8-1.9l19.14-18a7,7,0,1,0-9.59-10.19l-5.1,4.79v-104h45.69v54.35h-.43l-3.32-4.38a7,7,0,0,0-11.16,8.45l14.08,18.59a7,7,0,0,0,5,2.74,5.83,5.83,0,0,0,.59,0,7.06,7.06,0,0,0,4.8-1.9l19.14-18a7,7,0,0,0-9.59-10.2l-5.1,4.8V293.13h40.77v96.43a7,7,0,0,0,7,7h38.12l-1.26,1.24a7,7,0,0,0,9.81,10l15.77-15.49a7,7,0,0,0-1-10.82l-16.9-11.26a7,7,0,0,0-8.61.67,7.08,7.08,0,0,0-1.09,1.27,7,7,0,0,0,1.94,9.71l1,.69H334.29Zm-182.5-14a62.08,62.08,0,1,1,0-124.15h13.82a7,7,0,0,0,7-7V135.72a66.66,66.66,0,1,1,133.32,0V148a7,7,0,0,0,7,7h35.29a62.08,62.08,0,0,1,0,124.15Z"
            fill="#251ac7"></path>
    </g>
</svg>