<svg xmlns="http://www.w3.org/2000/svg" viewBox="0 0 100 100" width="500" height="500"
    >
    <defs>
        <style>
            .cls-2{fill:none;stroke:#3a00ba;stroke-miterlimit:10;stroke-width:2px;}</style>
    </defs>
    
    <g id="Layer_3" data-name="Layer 3">
        <path class="cls-2"
            d="M66.12,40.5h7.69a3.45,3.45,0,0,0,2.36-.94l6.4-6.08a3.42,3.42,0,0,0,0-5l-6.4-6.08a3.45,3.45,0,0,0-2.36-.94h-14"></path>
        <path class="cls-2"
            d="M63.06,21.5H26.19a3.45,3.45,0,0,0-2.36.94l-6.4,6.08a3.42,3.42,0,0,0,0,5l6.4,6.08a3.45,3.45,0,0,0,2.36.94H63.06a3.45,3.45,0,0,0,2.36-.94l6.4-6.08a3.42,3.42,0,0,0,0-5l-6.4-6.08A3.45,3.45,0,0,0,63.06,21.5Z"></path>
        <path class="cls-2"
            d="M44.21,35.49H45a1.45,1.45,0,0,1,1.45,1.45V40.5a0,0,0,0,1,0,0H42.76a0,0,0,0,1,0,0V36.94A1.45,1.45,0,0,1,44.21,35.49Z"></path>
        <path class="cls-2"
            d="M50.6,35.49h.83a1.45,1.45,0,0,1,1.45,1.45V40.5a0,0,0,0,1,0,0H49.15a0,0,0,0,1,0,0V36.94A1.45,1.45,0,0,1,50.6,35.49Z"></path>
        <path class="cls-2"
            d="M57,35.49h.83a1.45,1.45,0,0,1,1.45,1.45V40.5a0,0,0,0,1,0,0H55.54a0,0,0,0,1,0,0V36.94A1.45,1.45,0,0,1,57,35.49Z"></path>
        <rect class="cls-2" x="25.15" y="27.89" width="11.12" height="6.47" rx="1.06"></rect>
        <line class="cls-2" x1="39.97" y1="27.89" x2="63.66" y2="27.89"></line>
        <line class="cls-2" x1="39.97" y1="31.13" x2="51.37" y2="31.13"></line>
        <path class="cls-2"
            d="M82.57,52.48a3.42,3.42,0,0,0,0-5l-6.4-6.08a3.45,3.45,0,0,0-2.36-.94H62.19"></path>
        <path class="cls-2"
            d="M72.12,52.15a3.42,3.42,0,0,0-.3-4.63l-6.4-6.08a3.45,3.45,0,0,0-2.36-.94H26.19a3.45,3.45,0,0,0-2.36.94l-6.4,6.08a3.42,3.42,0,0,0,0,5l6.4,6.08a3.45,3.45,0,0,0,2.36.94H63.06a3.45,3.45,0,0,0,2.36-.94L66,58"></path>
        <path class="cls-2"
            d="M44.21,54.49H45a1.45,1.45,0,0,1,1.45,1.45V59.5a0,0,0,0,1,0,0H42.76a0,0,0,0,1,0,0V55.94A1.45,1.45,0,0,1,44.21,54.49Z"></path>
        <path class="cls-2"
            d="M50.6,54.49h.83a1.45,1.45,0,0,1,1.45,1.45V59.5a0,0,0,0,1,0,0H49.15a0,0,0,0,1,0,0V55.94A1.45,1.45,0,0,1,50.6,54.49Z"></path>
        <path class="cls-2"
            d="M57,54.49h.83a1.45,1.45,0,0,1,1.45,1.45V59.5a0,0,0,0,1,0,0H55.54a0,0,0,0,1,0,0V55.94A1.45,1.45,0,0,1,57,54.49Z"></path>
        <rect class="cls-2" x="25.15" y="46.89" width="11.12" height="6.47" rx="1.06"></rect>
        <line class="cls-2" x1="39.97" y1="46.89" x2="63.66" y2="46.89"></line>
        <line class="cls-2" x1="39.97" y1="50.13" x2="51.37" y2="50.13"></line>
        <path class="cls-2" d="M60.66,78.5H73.81a3.45,3.45,0,0,0,2.36-.94"></path>
        <path class="cls-2"
            d="M66.33,61.3l-.91-.86a3.45,3.45,0,0,0-2.36-.94H26.19a3.45,3.45,0,0,0-2.36.94l-6.4,6.08a3.42,3.42,0,0,0,0,5l6.4,6.08a3.45,3.45,0,0,0,2.36.94H63.06a3.45,3.45,0,0,0,2.36-.94l4.72-4.48"></path>
        <path class="cls-2"
            d="M44.21,73.49H45a1.45,1.45,0,0,1,1.45,1.45V78.5a0,0,0,0,1,0,0H42.76a0,0,0,0,1,0,0V74.94A1.45,1.45,0,0,1,44.21,73.49Z"></path>
        <path class="cls-2"
            d="M50.6,73.49h.83a1.45,1.45,0,0,1,1.45,1.45V78.5a0,0,0,0,1,0,0H49.15a0,0,0,0,1,0,0V74.94A1.45,1.45,0,0,1,50.6,73.49Z"></path>
        <path class="cls-2"
            d="M57,73.49h.83a1.45,1.45,0,0,1,1.45,1.45V78.5a0,0,0,0,1,0,0H55.54a0,0,0,0,1,0,0V74.94A1.45,1.45,0,0,1,57,73.49Z"></path>
        <rect class="cls-2" x="25.15" y="65.89" width="11.12" height="6.47" rx="1.06"></rect>
        <line class="cls-2" x1="39.97" y1="65.89" x2="63.66" y2="65.89"></line>
        <line class="cls-2" x1="39.97" y1="69.13" x2="51.37" y2="69.13"></line>
        <path class="cls-2"
            d="M86.25,72.12,79,77.49a2.48,2.48,0,0,1-2.87,0L68.9,72.12a7.56,7.56,0,0,1-2.74-5.69V52.13H89v14.3A7.56,7.56,0,0,1,86.25,72.12Z"></path>
        <path class="cls-2"
            d="M74.83,60.25V58.91a2.44,2.44,0,0,1,2.44-2.44h.61a2.44,2.44,0,0,1,2.44,2.44v2"></path>
        <rect class="cls-2" x="71.8" y="60.87" width="11.55" height="7.57"></rect>
    </g>
</svg>