<svg xmlns="http://www.w3.org/2000/svg" viewBox="0 0 500 500" width="500" height="500"
    >
    <title>23. Internet</title>
    <g id="Layer_1" data-name="Layer 1">
        <path
            d="M233.28,189.28V134a14.47,14.47,0,0,0-14.46-14.45H115.44A14.47,14.47,0,0,0,101,134v55.32Z"
            fill="none"></path>
        <path
            d="M425.45,279a62.61,62.61,0,0,0-8.63,10.93c-2,3.35-5.08,10-3.61,16.64a39.91,39.91,0,0,0,2.16,6.22c.78,1.9,1.58,3.88,2.23,6,2.28,7.55,1.38,14.42-2.52,19.34a30,30,0,0,1-4.91,4.67c-.43.35-1,.8-1.46,1.22a14.27,14.27,0,0,0,11.52,2.59c.8-.18,1.7-.46,2.66-.75a27.83,27.83,0,0,1,8-1.58h.26A18.23,18.23,0,0,1,449,359.7c.93,6.44-1.82,13.34-7.15,18a27.12,27.12,0,0,1-9.06,5.17l.87,8.26a7,7,0,0,1-3.29,6.7c-6.06,3.73-12.93,3.34-18.45,3l-1.49-.08c-6.41-.34-8.48,1-9.14,1.89-1.21,1.53-1,5,.6,9.68l.48,1.39a45.36,45.36,0,0,1,2.86,11.79A83.32,83.32,0,0,0,425.45,279Z"
            fill="none"></path>
        <path
            d="M391,429c.86-2.71-.47-6.57-1.88-10.65l-.5-1.47c-3.25-9.61-2.69-17.29,1.65-22.82,6.26-8,17.25-7.4,20.86-7.22l1.58.08a46.82,46.82,0,0,0,6.43.1l-.92-8.68a7,7,0,0,1,5.86-7.65,16.69,16.69,0,0,0,8.52-3.47c1.77-1.55,2.79-3.76,2.53-5.51a4.37,4.37,0,0,0-3.95-3.41h0a17.39,17.39,0,0,0-4.12,1c-1.11.35-2.38.74-3.72,1A28.27,28.27,0,0,1,398.84,354a14.26,14.26,0,0,1-4.7-7.24c-1.78-7.55,4.07-12.3,7.21-14.85a20.53,20.53,0,0,0,2.75-2.48c.92-1.16,1-3.76.1-6.61-.47-1.53-1.11-3.12-1.8-4.8a51.47,51.47,0,0,1-2.87-8.51c-1.84-8.41,0-17.91,5.23-26.74a68.33,68.33,0,0,1,8.35-11.09,83.2,83.2,0,0,0-64.87-2.86c.22.33.43.66.66,1,2.58,3.91,5.79,8.77,5.06,15.16-.58,5.09-3.62,9-5.63,11.55l-7.8,10a27.81,27.81,0,0,1,4.68,21.77l-.15.67.39.26c5.91,3.94,12.2,9,14,17,1.91,8.49-2.34,17.93-10.57,23.5-6.43,4.35-13.78,5.8-20.75,6.92l-1.26.2c-5.49.87-10.67,1.69-14.89,3.9a6.35,6.35,0,0,0-1,.58c-.12.3-.27.87-.39,1.31a24.61,24.61,0,0,1-1,3.07,12.62,12.62,0,0,1-3.43,4.8,83.23,83.23,0,0,0,84.72,38.75Z"
            fill="none"></path>
        <polygon points="144.19 238.97 192.69 238.97 184.93 224.73 152.82 224.73 144.19 238.97"
            fill="none"></polygon>
        <path d="M102.8,203.28a14.46,14.46,0,0,0,12.64,7.45H218.82a14.46,14.46,0,0,0,12.64-7.45Z"
            fill="none"></path>
        <path
            d="M299.47,373.33a16.33,16.33,0,0,1,6-5c6.26-3.28,13.13-4.37,19.2-5.33l1.24-.19c5.65-.91,11-1.95,15.12-4.7,3.33-2.25,5.38-6.05,4.75-8.83-.71-3.15-4.49-6-8.09-8.42-1.83-1.22-5.24-3.49-6.44-7.75a13.81,13.81,0,0,1,.15-7.26l.12-.54a13.65,13.65,0,0,0-4.57-13,7,7,0,0,1-1.11-9.75l11.47-14.64c1.1-1.4,2.61-3.33,2.74-4.49.15-1.34-1.37-3.64-2.84-5.87-.55-.84-1.14-1.73-1.7-2.66a83.26,83.26,0,0,0-36.84,99.8A13.64,13.64,0,0,1,299.47,373.33Z"
            fill="none"></path>
        <path
            d="M431.78,266.31a6.94,6.94,0,0,0-6.85-4.24,96.79,96.79,0,0,0-47.62-12.47c-2.27,0-4.52.09-6.74.24a7,7,0,0,0-13.78,1.73v.22A97.54,97.54,0,0,0,279.92,347c0,2.2.09,4.39.23,6.57a7,7,0,0,0,1.73,12.88,97.38,97.38,0,1,0,149.9-100.13Zm-96.27,8.57c.56.93,1.15,1.82,1.7,2.66,1.47,2.23,3,4.53,2.84,5.87-.13,1.16-1.64,3.09-2.74,4.49l-11.47,14.64a7,7,0,0,0,1.11,9.75,13.65,13.65,0,0,1,4.57,13l-.12.54a13.81,13.81,0,0,0-.15,7.26c1.2,4.26,4.61,6.53,6.44,7.75,3.6,2.4,7.38,5.27,8.09,8.42.63,2.78-1.42,6.58-4.75,8.83-4.07,2.75-9.47,3.79-15.12,4.7l-1.24.19c-6.07,1-12.94,2.05-19.2,5.33a16.33,16.33,0,0,0-6,5,13.64,13.64,0,0,0-.8,1.35,83.26,83.26,0,0,1,36.84-99.8Zm-29.3,115.61a12.62,12.62,0,0,0,3.43-4.8,24.61,24.61,0,0,0,1-3.07c.12-.44.27-1,.39-1.31a6.35,6.35,0,0,1,1-.58c4.22-2.21,9.4-3,14.89-3.9l1.26-.2c7-1.12,14.32-2.57,20.75-6.92,8.23-5.57,12.48-15,10.57-23.5-1.79-8-8.08-13.07-14-17l-.39-.26.15-.67a27.81,27.81,0,0,0-4.68-21.77l7.8-10c2-2.57,5.05-6.46,5.63-11.55.73-6.39-2.48-11.25-5.06-15.16-.23-.33-.44-.66-.66-1a83.2,83.2,0,0,1,64.87,2.86,68.33,68.33,0,0,0-8.35,11.09c-5.22,8.83-7.07,18.33-5.23,26.74A51.47,51.47,0,0,0,402.4,318c.69,1.68,1.33,3.27,1.8,4.8.86,2.85.82,5.45-.1,6.61a20.53,20.53,0,0,1-2.75,2.48c-3.14,2.55-9,7.3-7.21,14.85a14.26,14.26,0,0,0,4.7,7.24,28.27,28.27,0,0,0,24.45,6.25c1.34-.3,2.61-.69,3.72-1a17.39,17.39,0,0,1,4.12-1h0a4.37,4.37,0,0,1,3.95,3.41c.26,1.75-.76,4-2.53,5.51a16.69,16.69,0,0,1-8.52,3.47,7,7,0,0,0-5.86,7.65l.92,8.68a46.82,46.82,0,0,1-6.43-.1l-1.58-.08c-3.61-.18-14.6-.75-20.86,7.22-4.34,5.53-4.9,13.21-1.65,22.82l.5,1.47c1.41,4.08,2.74,7.94,1.88,10.65l-.06.26a83.23,83.23,0,0,1-84.72-38.75Zm99,35.06a45.36,45.36,0,0,0-2.86-11.79l-.48-1.39c-1.59-4.71-1.81-8.15-.6-9.68.66-.85,2.73-2.23,9.14-1.89l1.49.08c5.52.31,12.39.7,18.45-3a7,7,0,0,0,3.29-6.7l-.87-8.26a27.12,27.12,0,0,0,9.06-5.17c5.33-4.68,8.08-11.58,7.15-18a18.23,18.23,0,0,0-17.8-15.42h-.26a27.83,27.83,0,0,0-8,1.58c-1,.29-1.86.57-2.66.75A14.27,14.27,0,0,1,408.71,344c.48-.42,1-.87,1.46-1.22a30,30,0,0,0,4.91-4.67c3.9-4.92,4.8-11.79,2.52-19.34-.65-2.15-1.45-4.13-2.23-6a39.91,39.91,0,0,1-2.16-6.22c-1.47-6.68,1.63-13.29,3.61-16.64A62.61,62.61,0,0,1,425.45,279a83.32,83.32,0,0,1-20.24,146.58Z"
            fill="#251ac7"></path>
        <path d="M284.6,176.47a7,7,0,0,0-7-7h-2.5a7,7,0,0,0,0,14h2.5A7,7,0,0,0,284.6,176.47Z"
            fill="#251ac7"></path>
        <path d="M302.71,169.47a7,7,0,0,0,0,14h4.18a7,7,0,0,0,0-14Z" fill="#251ac7"></path>
        <path d="M332,169.47a7,7,0,0,0,0,14h4.18a7,7,0,0,0,0-14Z" fill="#251ac7"></path>
        <path d="M370.79,176.47a7,7,0,0,0-7-7h-2.5a7,7,0,0,0-3.54,13,7,7,0,0,0,13-3.54Z"
            fill="#251ac7"></path>
        <path d="M363.79,205.48a7,7,0,0,0-7,7v5.58a7,7,0,0,0,14,0v-5.58A7,7,0,0,0,363.79,205.48Z"
            fill="#251ac7"></path>
        <path d="M160.22,275.74a7,7,0,0,0,7-7v-2.5a7,7,0,0,0-14,0v2.5A7,7,0,0,0,160.22,275.74Z"
            fill="#251ac7"></path>
        <path d="M153.22,299.68a7,7,0,0,0,14,0v-4.42a7,7,0,0,0-14,0Z" fill="#251ac7"></path>
        <path d="M153.22,330.63a7,7,0,0,0,14,0v-4.42a7,7,0,0,0-14,0Z" fill="#251ac7"></path>
        <path d="M166.26,353.62a7,7,0,0,0-13,3.54v2.5a7,7,0,0,0,7,7h2.5a7,7,0,0,0,3.54-13Z"
            fill="#251ac7"></path>
        <path d="M225.39,352.66h-4.48a7,7,0,0,0,0,14h4.48a7,7,0,0,0,0-14Z" fill="#251ac7"></path>
        <path d="M256.72,352.66h-4.47a7,7,0,0,0,0,14h4.47a7,7,0,0,0,0-14Z" fill="#251ac7"></path>
        <path d="M194.06,352.66h-4.48a7,7,0,1,0,0,14h4.48a7,7,0,0,0,0-14Z" fill="#251ac7"></path>
        <path
            d="M247.28,134a28.49,28.49,0,0,0-28.46-28.45H115.44A28.49,28.49,0,0,0,87,134v62.32a28.49,28.49,0,0,0,28.46,28.45h21l-10.67,17.61a7,7,0,0,0,6,10.63h72.72a7,7,0,0,0,6.15-10.36l-9.76-17.88h17.95a28.49,28.49,0,0,0,28.46-28.45ZM115.44,119.51H218.82A14.47,14.47,0,0,1,233.28,134v55.32H101V134A14.47,14.47,0,0,1,115.44,119.51ZM192.69,239h-48.5l8.63-14.24h32.11Zm26.13-28.24H115.44a14.46,14.46,0,0,1-12.64-7.45H231.46A14.46,14.46,0,0,1,218.82,210.73Z"
            fill="#251ac7"></path>
    </g>
</svg>