<svg xmlns="http://www.w3.org/2000/svg" viewBox="0 0 500 500" width="500" height="500"
    >
    <title>18. Server</title>
    <g id="Layer_1" data-name="Layer 1">
        <rect x="185.48" y="324.54" width="7.96" height="5.71" fill="none"></rect>
        <path
            d="M337.6,215.24H162.4v55.17H337.6ZM207.45,249.4a7,7,0,0,1-7,7h-22a7,7,0,0,1-7-7V229.69a7,7,0,0,1,7-7h22a7,7,0,0,1,7,7Zm25.66,7.75h-8.45a7,7,0,0,1,0-14h8.45a7,7,0,1,1,0,14Zm0-18.39h-8.45a7,7,0,1,1,0-14h8.45a7,7,0,0,1,0,14Zm88.41,18.39H250.94a7,7,0,0,1,0-14h70.58a7,7,0,1,1,0,14Zm0-18.39H250.94a7,7,0,0,1,0-14h70.58a7,7,0,0,1,0,14Z"
            fill="none"></path>
        <rect x="185.48" y="236.69" width="7.96" height="5.71" fill="none"></rect>
        <path
            d="M337.6,303.08H162.4v55.18H337.6ZM207.45,337.25a7,7,0,0,1-7,7h-22a7,7,0,0,1-7-7V317.54a7,7,0,0,1,7-7h22a7,7,0,0,1,7,7ZM233.11,345h-8.45a7,7,0,1,1,0-14h8.45a7,7,0,0,1,0,14Zm0-18.4h-8.45a7,7,0,1,1,0-14h8.45a7,7,0,0,1,0,14ZM321.52,345H250.94a7,7,0,0,1,0-14h70.58a7,7,0,0,1,0,14Zm0-18.4H250.94a7,7,0,1,1,0-14h70.58a7,7,0,0,1,0,14Z"
            fill="none"></path>
        <path
            d="M337.6,390.93H162.4v55.18H337.6ZM207.45,425.1a7,7,0,0,1-7,7h-22a7,7,0,0,1-7-7V405.39a7,7,0,0,1,7-7h22a7,7,0,0,1,7,7Zm25.66,7.75h-8.45a7,7,0,1,1,0-14h8.45a7,7,0,0,1,0,14Zm0-18.4h-8.45a7,7,0,0,1,0-14h8.45a7,7,0,0,1,0,14Zm88.41,18.4H250.94a7,7,0,1,1,0-14h70.58a7,7,0,0,1,0,14Zm0-18.4H250.94a7,7,0,0,1,0-14h70.58a7,7,0,0,1,0,14Z"
            fill="none"></path>
        <rect x="185.48" y="412.39" width="7.96" height="5.71" fill="none"></rect>
        <path
            d="M132.83,471H367.17V129.64H132.83Zm42.28-326.12H324.9a7,7,0,0,1,0,14H175.11a7,7,0,0,1,0-14Zm138.2,34a7,7,0,0,1-7,7H193.69a7,7,0,0,1,0-14H306.31A7,7,0,0,1,313.31,179ZM148.4,208.24a7,7,0,0,1,7-7H344.6a7,7,0,0,1,7,7v69.17a7,7,0,0,1-7,7H155.4a7,7,0,0,1-7-7Zm0,87.84a7,7,0,0,1,7-7H344.6a7,7,0,0,1,7,7v69.18a7,7,0,0,1-7,7H155.4a7,7,0,0,1-7-7Zm0,87.85a7,7,0,0,1,7-7H344.6a7,7,0,0,1,7,7v69.18a7,7,0,0,1-7,7H155.4a7,7,0,0,1-7-7Z"
            fill="none"></path>
        <rect x="215.89" y="100.11" width="68.22" height="12.71" fill="none"></rect>
        <path
            d="M381.17,478V122.64a7,7,0,0,0-7-7H298.11V93.11a7,7,0,0,0-7-7H208.89a7,7,0,0,0-7,7v22.53H125.83a7,7,0,0,0-7,7V478a7,7,0,0,0,7,7H374.17A7,7,0,0,0,381.17,478ZM215.89,100.11h68.22v12.72H215.89ZM367.17,471H132.83V129.64H367.17Z"
            fill="#251ac7"></path>
        <path d="M175.11,158.92H324.9a7,7,0,0,0,0-14H175.11a7,7,0,0,0,0,14Z" fill="#251ac7"></path>
        <path d="M193.69,172a7,7,0,0,0,0,14H306.31a7,7,0,0,0,0-14Z" fill="#251ac7"></path>
        <path
            d="M155.4,284.41H344.6a7,7,0,0,0,7-7V208.24a7,7,0,0,0-7-7H155.4a7,7,0,0,0-7,7v69.17A7,7,0,0,0,155.4,284.41Zm7-69.17H337.6v55.17H162.4Z"
            fill="#251ac7"></path>
        <path d="M321.52,224.76H250.94a7,7,0,0,0,0,14h70.58a7,7,0,0,0,0-14Z" fill="#251ac7"></path>
        <path d="M233.11,224.76h-8.45a7,7,0,1,0,0,14h8.45a7,7,0,0,0,0-14Z" fill="#251ac7"></path>
        <path d="M321.52,243.15H250.94a7,7,0,0,0,0,14h70.58a7,7,0,1,0,0-14Z" fill="#251ac7"></path>
        <path d="M233.11,243.15h-8.45a7,7,0,0,0,0,14h8.45a7,7,0,1,0,0-14Z" fill="#251ac7"></path>
        <path
            d="M200.45,222.69h-22a7,7,0,0,0-7,7V249.4a7,7,0,0,0,7,7h22a7,7,0,0,0,7-7V229.69A7,7,0,0,0,200.45,222.69Zm-7,19.71h-8v-5.71h8Z"
            fill="#251ac7"></path>
        <path
            d="M155.4,372.26H344.6a7,7,0,0,0,7-7V296.08a7,7,0,0,0-7-7H155.4a7,7,0,0,0-7,7v69.18A7,7,0,0,0,155.4,372.26Zm7-69.18H337.6v55.18H162.4Z"
            fill="#251ac7"></path>
        <path d="M321.52,312.6H250.94a7,7,0,1,0,0,14h70.58a7,7,0,0,0,0-14Z" fill="#251ac7"></path>
        <path d="M233.11,312.6h-8.45a7,7,0,1,0,0,14h8.45a7,7,0,0,0,0-14Z" fill="#251ac7"></path>
        <path d="M321.52,331H250.94a7,7,0,0,0,0,14h70.58a7,7,0,0,0,0-14Z" fill="#251ac7"></path>
        <path d="M233.11,331h-8.45a7,7,0,1,0,0,14h8.45a7,7,0,0,0,0-14Z" fill="#251ac7"></path>
        <path
            d="M200.45,310.54h-22a7,7,0,0,0-7,7v19.71a7,7,0,0,0,7,7h22a7,7,0,0,0,7-7V317.54A7,7,0,0,0,200.45,310.54Zm-7,19.71h-8v-5.71h8Z"
            fill="#251ac7"></path>
        <path
            d="M155.4,460.11H344.6a7,7,0,0,0,7-7V383.93a7,7,0,0,0-7-7H155.4a7,7,0,0,0-7,7v69.18A7,7,0,0,0,155.4,460.11Zm7-69.18H337.6v55.18H162.4Z"
            fill="#251ac7"></path>
        <path d="M321.52,400.45H250.94a7,7,0,0,0,0,14h70.58a7,7,0,0,0,0-14Z" fill="#251ac7"></path>
        <path d="M233.11,400.45h-8.45a7,7,0,0,0,0,14h8.45a7,7,0,0,0,0-14Z" fill="#251ac7"></path>
        <path d="M321.52,418.85H250.94a7,7,0,1,0,0,14h70.58a7,7,0,0,0,0-14Z" fill="#251ac7"></path>
        <path d="M233.11,418.85h-8.45a7,7,0,1,0,0,14h8.45a7,7,0,0,0,0-14Z" fill="#251ac7"></path>
        <path
            d="M200.45,398.39h-22a7,7,0,0,0-7,7V425.1a7,7,0,0,0,7,7h22a7,7,0,0,0,7-7V405.39A7,7,0,0,0,200.45,398.39Zm-7,19.71h-8v-5.71h8Z"
            fill="#251ac7"></path>
    </g>
</svg>