<svg xmlns="http://www.w3.org/2000/svg" xmlns:xlink="http://www.w3.org/1999/xlink" version="1.0" x="0" y="0" viewBox="5.404998779296875 0.8360000252723694 38.595001220703125 48.3280029296875" enable-background="new 0 0 50 50" xml:space="preserve" height="118.57991337085147" width="94.69855205805577" class="icon-s-0" data-fill-palette-color="accent" id="s-0"><g fill="#ff784e" data-fill-palette-color="accent"><path fill="#ffffff" d="M24.987 0.836c-10.823 0-19.582 9.504-19.582 20.328 0 6.215 0.084 25 0.068 28l0 0 4.323-6.309 3.86 5.766 3.378-6.127 4.264 6.02 3.922-5.928 3.932 5.9 3.819-6.06 4.039 6.053 3.336-6.505L44 48.257c0 0 0-21.731 0-27.773C44 9.659 35.813 0.836 24.987 0.836zM18.53 24.165c-1.479 0-2.677-1.199-2.677-2.677s1.198-2.677 2.677-2.677 2.677 1.198 2.677 2.677S20.009 24.165 18.53 24.165zM31.915 24.165c-1.479 0-2.676-1.199-2.676-2.677s1.197-2.677 2.676-2.677 2.678 1.198 2.678 2.677S33.394 24.165 31.915 24.165z" data-fill-palette-color="accent"/></g></svg>